<svg xmlns="http://www.w3.org/2000/svg" width="20.687" height="21.068" viewBox="0 0 20.687 21.068">
  <g id="Group_2856" data-name="Group 2856" transform="translate(-273.941 -1423.021)">
    <path id="Path_378" data-name="Path 378" d="M278.973,4586.918l5.572-3.7a.835.835,0,0,1,1.2.117c.688.631,2.7,2.655,2.7,2.655l.353.929Z" transform="translate(0 -3160)" fill="#fff"/>
    <path id="Path_379" data-name="Path 379" d="M0,0,5.572,3.7a.835.835,0,0,0,1.2-.117C7.463,2.953,9.48.929,9.48.929L9.832,0Z" transform="translate(277.839 1428.053) rotate(90)" fill="#fff"/>
    <path id="Path_380" data-name="Path 380" d="M289.729,4587.839l3.728,10.563-1,2.325,2.165-.725v-7.915l-3.584-3.538a8.7,8.7,0,0,0-1.143-.709C289.427,4587.62,289.729,4587.839,289.729,4587.839Z" transform="translate(0 -3160)" fill="#fff"/>
    <path id="Path_381" data-name="Path 381" d="M294.881,4587.838l-3.994,10.479,1.066,2.307-2.319-.72v-7.852l3.839-3.51a9.439,9.439,0,0,1,1.224-.7C295.206,4587.621,294.881,4587.838,294.881,4587.838Z" transform="translate(-4309.224 1733.723) rotate(-90)" fill="#fff"/>
    <path id="Path_382" data-name="Path 382" d="M278.287,4588.053v10.184l10.87,3.863,2.228-1.021Z" transform="translate(0 -3160)" fill="#fff"/>
    <path id="Path_383" data-name="Path 383" d="M278.687,4587.563l13.141,13.115,1.014-2.248-3.833-10.867" transform="translate(0 -3160)" fill="#fff"/>
  </g>
</svg>
