<svg xmlns="http://www.w3.org/2000/svg" width="22.342" height="21.784" viewBox="0 0 22.342 21.784">
  <path id="Icon_awesome-github" data-name="Icon awesome-github" d="M7.473,18.1c0,.09-.1.162-.234.162-.149.014-.252-.059-.252-.162s.1-.162.234-.162S7.473,18,7.473,18.1Zm-1.4-.2c-.032.09.059.194.194.221a.211.211,0,0,0,.279-.09c.027-.09-.059-.194-.194-.234A.231.231,0,0,0,6.072,17.9Zm1.991-.077c-.131.032-.221.117-.207.221s.131.149.266.117.221-.117.207-.207S8.194,17.81,8.063,17.824ZM11.027.563A10.8,10.8,0,0,0,0,11.554,11.293,11.293,0,0,0,7.635,22.328c.577.1.779-.252.779-.545S8.4,19.964,8.4,19.018c0,0-3.153.676-3.815-1.342,0,0-.514-1.311-1.252-1.649,0,0-1.032-.707.072-.694A2.378,2.378,0,0,1,5.144,16.5a2.381,2.381,0,0,0,3.284.941,2.5,2.5,0,0,1,.721-1.518c-2.518-.279-5.059-.644-5.059-4.978A3.414,3.414,0,0,1,5.153,8.288,4.256,4.256,0,0,1,5.27,5.229c.941-.293,3.108,1.216,3.108,1.216a10.642,10.642,0,0,1,5.658,0S16.2,4.932,17.144,5.229a4.254,4.254,0,0,1,.117,3.059,3.5,3.5,0,0,1,1.162,2.653c0,4.347-2.653,4.694-5.171,4.978a2.664,2.664,0,0,1,.766,2.09c0,1.518-.014,3.4-.014,3.766,0,.293.207.649.779.545a11.189,11.189,0,0,0,7.559-10.766A11.045,11.045,0,0,0,11.027.563ZM4.378,16.1c-.059.045-.045.149.032.234s.176.1.234.045.045-.149-.032-.234S4.437,16.04,4.378,16.1Zm-.486-.365c-.032.059.014.131.1.176a.134.134,0,0,0,.194-.032c.032-.059-.014-.131-.1-.176C4,15.675,3.923,15.689,3.892,15.734Zm1.459,1.6c-.072.059-.045.194.059.279.1.1.234.117.293.045s.032-.194-.059-.279C5.545,17.279,5.41,17.265,5.351,17.337Zm-.514-.662c-.072.045-.072.162,0,.266s.194.149.252.1a.205.205,0,0,0,0-.279C5.027,16.662,4.91,16.617,4.838,16.675Z" transform="translate(0 -0.563)" fill="#37ad6b"/>
</svg>
