<svg xmlns="http://www.w3.org/2000/svg" width="21.442" height="21.437" viewBox="0 0 21.442 21.437">
  <path id="Icon_awesome-instagram" data-name="Icon awesome-instagram" d="M10.718,7.46a5.5,5.5,0,1,0,5.5,5.5A5.487,5.487,0,0,0,10.718,7.46Zm0,9.069a3.573,3.573,0,1,1,3.573-3.573A3.58,3.58,0,0,1,10.718,16.529Zm7-9.294a1.282,1.282,0,1,1-1.282-1.282A1.279,1.279,0,0,1,17.721,7.235Zm3.64,1.3A6.344,6.344,0,0,0,19.63,4.045a6.386,6.386,0,0,0-4.492-1.732c-1.77-.1-7.075-.1-8.845,0A6.377,6.377,0,0,0,1.8,4.04,6.365,6.365,0,0,0,.07,8.532c-.1,1.77-.1,7.075,0,8.845A6.344,6.344,0,0,0,1.8,21.868,6.394,6.394,0,0,0,6.293,23.6c1.77.1,7.075.1,8.845,0a6.344,6.344,0,0,0,4.492-1.732,6.386,6.386,0,0,0,1.732-4.492c.1-1.77.1-7.07,0-8.84ZM19.075,19.275a3.618,3.618,0,0,1-2.038,2.038c-1.411.56-4.76.431-6.319.431s-4.913.124-6.319-.431a3.618,3.618,0,0,1-2.038-2.038c-.56-1.411-.431-4.76-.431-6.319s-.124-4.913.431-6.319A3.618,3.618,0,0,1,4.4,4.6c1.411-.56,4.76-.431,6.319-.431s4.913-.124,6.319.431a3.618,3.618,0,0,1,2.038,2.038c.56,1.411.431,4.76.431,6.319S19.634,17.869,19.075,19.275Z" transform="translate(0.005 -2.238)" fill="#37ad6b"/>
</svg>
