<svg xmlns="http://www.w3.org/2000/svg" width="19.958" height="19.958" viewBox="0 0 19.958 19.958">
  <path id="Icon_awesome-linkedin-in" data-name="Icon awesome-linkedin-in" d="M4.467,19.959H.33V6.634H4.467ZM2.4,4.816A2.408,2.408,0,1,1,4.793,2.4,2.417,2.417,0,0,1,2.4,4.816ZM19.954,19.959H15.825V13.472c0-1.546-.031-3.528-2.151-3.528-2.151,0-2.481,1.68-2.481,3.417v6.6H7.059V6.634h3.969V8.451h.058A4.348,4.348,0,0,1,15,6.3c4.188,0,4.958,2.758,4.958,6.339v7.32Z" transform="translate(0 -0.001)" fill="#37ad6b"/>
</svg>
