<svg xmlns="http://www.w3.org/2000/svg" width="366" height="198" viewBox="0 0 366 198">
  <g id="Group_2857" data-name="Group 2857" transform="translate(-791 -802)">
    <g id="Group_2856" data-name="Group 2856">
      <g id="Page-1" transform="translate(859.745 912)">
        <text id="nryn" transform="translate(-30.745 26)" fill="#37ad6b" font-size="130" font-family="Roboto-Black, Roboto" font-weight="800"><tspan x="0" y="0">nryn</tspan></text>
      </g>
      <path id="Icon_material-copyright" data-name="Icon material-copyright" d="M8.145,8.642a1.628,1.628,0,0,1,.191-.554,1.114,1.114,0,0,1,.376-.395,1.13,1.13,0,0,1,.58-.146,1.154,1.154,0,0,1,.4.083,1.027,1.027,0,0,1,.331.229,1.226,1.226,0,0,1,.217.338,1.115,1.115,0,0,1,.089.408h1.14a2.28,2.28,0,0,0-.178-.821,1.911,1.911,0,0,0-.446-.643,2.08,2.08,0,0,0-.688-.42,2.46,2.46,0,0,0-.885-.146,2.489,2.489,0,0,0-1.083.217,2.19,2.19,0,0,0-.764.586,2.394,2.394,0,0,0-.452.866,3.73,3.73,0,0,0-.153,1.044v.172A3.728,3.728,0,0,0,6.967,10.5a2.315,2.315,0,0,0,.452.86,2.174,2.174,0,0,0,.764.58,2.584,2.584,0,0,0,1.083.217,2.429,2.429,0,0,0,.841-.146,2.172,2.172,0,0,0,.688-.4,1.944,1.944,0,0,0,.471-.6,1.714,1.714,0,0,0,.191-.732h-1.14a.907.907,0,0,1-.1.369.937.937,0,0,1-.229.293,1,1,0,0,1-.331.191,1.264,1.264,0,0,1-.382.064,1.082,1.082,0,0,1-.567-.146,1.114,1.114,0,0,1-.376-.395,1.664,1.664,0,0,1-.191-.56,4.292,4.292,0,0,1-.051-.637V9.285a4.243,4.243,0,0,1,.051-.643ZM9.368,3a6.368,6.368,0,1,0,6.368,6.368A6.37,6.37,0,0,0,9.368,3Zm0,11.463a5.095,5.095,0,1,1,5.095-5.095A5.1,5.1,0,0,1,9.368,14.463Z" transform="translate(1080.884 859.5)" fill="#37ad6b"/>
    </g>
    
  </g>
</svg>
