<svg xmlns="http://www.w3.org/2000/svg" width="34.755" height="31.5" viewBox="0 0 34.755 31.5">
  <path id="Icon_awesome-sketch" data-name="Icon awesome-sketch" d="M1.934,11.4l-1.3,1.751H7l.485-9.19ZM27.865,3.213,18.823,2.25,28.364,12.6l-.5-9.387ZM7.889,15.349,7.1,13.8H.7L16.509,32.2Zm.141-2.194H28l-5.73-6.223L18.021,2.32Zm20.9.64L19.519,32.2,35.325,13.8H28.934Zm.274-8.944-.661-.886.063,1.216.429,7.973h6.349ZM7.98,6.574l-.323,6.019L17.205,2.25l-9.042.963ZM28.209,13.8H7.819L10.8,19.624,18.021,33.75,28.209,13.8Z" transform="translate(-0.633 -2.25)"/>
</svg>
