<svg xmlns="http://www.w3.org/2000/svg" width="21.746" height="21.203" viewBox="0 0 21.746 21.203">
  <path id="Icon_simple-adobexd" data-name="Icon simple-adobexd" d="M17.9.45H3.851A3.848,3.848,0,0,0,0,4.3V17.8a3.848,3.848,0,0,0,3.851,3.851H17.9A3.848,3.848,0,0,0,21.746,17.8V4.3A3.848,3.848,0,0,0,17.9.45Zm2.936,17a3.283,3.283,0,0,1-3.28,3.3H4.2A3.3,3.3,0,0,1,.906,17.457V4.645A3.3,3.3,0,0,1,4.2,1.356H17.542a3.289,3.289,0,0,1,3.289,3.289ZM8.6,10.372l2.537,4.875c.045.072.018.145-.054.145H9.5a.178.178,0,0,1-.19-.118c-.58-1.2-1.169-2.392-1.776-3.679H7.521c-.544,1.214-1.142,2.492-1.722,3.688a.174.174,0,0,1-.163.1h-1.5c-.091,0-.1-.072-.054-.127l2.483-4.73-2.4-4.784a.073.073,0,0,1,.054-.127H5.781a.143.143,0,0,1,.163.1c.571,1.2,1.151,2.428,1.694,3.633h.018c.526-1.2,1.105-2.437,1.667-3.624.045-.072.072-.118.163-.118h1.459c.072,0,.1.054.054.127Zm2.981,1.477a3.544,3.544,0,0,1,3.633-3.76,4.018,4.018,0,0,1,.471.018v-2.4a.091.091,0,0,1,.091-.091h1.432c.072,0,.091.027.091.072v8.318a6.454,6.454,0,0,0,.045.888c0,.054-.018.072-.072.1a5.4,5.4,0,0,1-2.32.526C12.984,15.527,11.58,14.313,11.58,11.849Zm4.1-2.32a1.37,1.37,0,0,0-.526-.091c-1.142,0-1.939.879-1.939,2.338,0,1.667.815,2.338,1.839,2.338a1.709,1.709,0,0,0,.625-.1V9.529Z" transform="translate(0 -0.45)" fill="#fff"/>
</svg>
